<svg width="79" height="71" viewBox="0 0 79 71" fill="none" xmlns="http://www.w3.org/2000/svg">
<path opacity="0.7" d="M39.3651 6.99009C30.031 -2.33049 14.6096 -1.92525 5.68136 8.20582C-2.4352 17.5264 -1.42063 31.5073 7.30468 40.22L36.5243 69.3975C38.1476 71.0184 40.7855 71.0184 42.4088 69.3975L71.6284 40.22C80.3537 31.5073 81.3683 17.3238 73.2517 8.20582C64.1206 -2.12787 48.6991 -2.53311 39.3651 6.99009Z" fill="white"/>
<path opacity="0.4" d="M39.3653 6.99009C35.1041 2.73504 29.6254 0.506197 24.1468 0.303576L0 24.2129C0.405828 30.0889 2.8408 35.7623 7.10199 40.0174L21.7118 54.6061L70.6141 5.77435C61.6859 -2.12788 47.8877 -1.72263 39.3653 6.99009Z" fill="white"/>
<path opacity="0.4" d="M36.1187 69.1948L78.1219 27.2522C79.1365 21.7814 78.3248 16.108 75.2811 11.2451L26.7847 59.6716L36.1187 69.1948Z" fill="white"/>
</svg>
