<svg width="152" height="152" viewBox="0 0 152 152" fill="none" xmlns="http://www.w3.org/2000/svg">
<circle cx="2.33848" cy="149.663" r="2.33848" fill="white"/>
<circle cx="18.7096" cy="149.663" r="2.33848" fill="white"/>
<circle cx="35.0768" cy="149.663" r="2.33848" fill="white"/>
<circle cx="51.4479" cy="149.663" r="2.33848" fill="white"/>
<circle cx="67.815" cy="149.663" r="2.33848" fill="white"/>
<circle cx="84.1861" cy="149.663" r="2.33848" fill="white"/>
<circle cx="100.553" cy="149.663" r="2.33848" fill="white"/>
<circle cx="116.924" cy="149.663" r="2.33848" fill="white"/>
<circle cx="133.296" cy="149.663" r="2.33848" fill="white"/>
<circle cx="149.663" cy="149.663" r="2.33848" fill="white"/>
<circle cx="2.33848" cy="133.293" r="2.33848" fill="white"/>
<circle cx="18.7096" cy="133.293" r="2.33848" fill="white"/>
<circle cx="35.0768" cy="133.293" r="2.33848" fill="white"/>
<circle cx="51.4479" cy="133.293" r="2.33848" fill="white"/>
<circle cx="67.815" cy="133.293" r="2.33848" fill="white"/>
<circle cx="84.1861" cy="133.293" r="2.33848" fill="white"/>
<circle cx="100.553" cy="133.293" r="2.33848" fill="white"/>
<circle cx="116.924" cy="133.293" r="2.33848" fill="white"/>
<circle cx="133.296" cy="133.293" r="2.33848" fill="white"/>
<circle cx="149.663" cy="133.293" r="2.33848" fill="white"/>
<circle cx="2.33848" cy="116.924" r="2.33848" fill="white"/>
<circle cx="18.7096" cy="116.924" r="2.33848" fill="white"/>
<circle cx="35.0768" cy="116.924" r="2.33848" fill="white"/>
<circle cx="51.4479" cy="116.924" r="2.33848" fill="white"/>
<circle cx="67.815" cy="116.924" r="2.33848" fill="white"/>
<circle cx="84.1861" cy="116.924" r="2.33848" fill="white"/>
<circle cx="100.553" cy="116.924" r="2.33848" fill="white"/>
<circle cx="116.924" cy="116.924" r="2.33848" fill="white"/>
<circle cx="133.296" cy="116.924" r="2.33848" fill="white"/>
<circle cx="149.663" cy="116.924" r="2.33848" fill="white"/>
<circle cx="2.33848" cy="100.555" r="2.33848" fill="white"/>
<circle cx="18.7096" cy="100.555" r="2.33848" fill="white"/>
<circle cx="35.0768" cy="100.555" r="2.33848" fill="white"/>
<circle cx="51.4479" cy="100.555" r="2.33848" fill="white"/>
<circle cx="67.815" cy="100.555" r="2.33848" fill="white"/>
<circle cx="84.1861" cy="100.555" r="2.33848" fill="white"/>
<circle cx="100.553" cy="100.555" r="2.33848" fill="white"/>
<circle cx="116.924" cy="100.555" r="2.33848" fill="white"/>
<circle cx="133.296" cy="100.555" r="2.33848" fill="white"/>
<circle cx="149.663" cy="100.555" r="2.33848" fill="white"/>
<circle cx="2.33848" cy="84.1852" r="2.33848" fill="white"/>
<circle cx="18.7096" cy="84.1852" r="2.33848" fill="white"/>
<circle cx="35.0768" cy="84.1852" r="2.33848" fill="white"/>
<circle cx="51.4479" cy="84.1852" r="2.33848" fill="white"/>
<circle cx="67.815" cy="84.1852" r="2.33848" fill="white"/>
<circle cx="84.1861" cy="84.1852" r="2.33848" fill="white"/>
<circle cx="100.553" cy="84.1852" r="2.33848" fill="white"/>
<circle cx="116.924" cy="84.1854" r="2.33848" fill="white"/>
<circle cx="133.296" cy="84.1852" r="2.33848" fill="white"/>
<circle cx="149.663" cy="84.1852" r="2.33848" fill="white"/>
<circle cx="2.33848" cy="67.8159" r="2.33848" fill="white"/>
<circle cx="18.7096" cy="67.8159" r="2.33848" fill="white"/>
<circle cx="35.0768" cy="67.8159" r="2.33848" fill="white"/>
<circle cx="51.4479" cy="67.8159" r="2.33848" fill="white"/>
<circle cx="67.815" cy="67.8159" r="2.33848" fill="white"/>
<circle cx="84.1861" cy="67.8159" r="2.33848" fill="white"/>
<circle cx="100.553" cy="67.8159" r="2.33848" fill="white"/>
<circle cx="116.924" cy="67.8158" r="2.33848" fill="white"/>
<circle cx="133.296" cy="67.8159" r="2.33848" fill="white"/>
<circle cx="149.663" cy="67.8159" r="2.33848" fill="white"/>
<circle cx="2.33848" cy="51.4465" r="2.33848" fill="white"/>
<circle cx="18.7096" cy="51.4465" r="2.33848" fill="white"/>
<circle cx="35.0768" cy="51.4465" r="2.33848" fill="white"/>
<circle cx="51.4479" cy="51.4465" r="2.33848" fill="white"/>
<circle cx="67.815" cy="51.4465" r="2.33848" fill="white"/>
<circle cx="84.1861" cy="51.4465" r="2.33848" fill="white"/>
<circle cx="100.553" cy="51.4465" r="2.33848" fill="white"/>
<circle cx="116.924" cy="51.4465" r="2.33848" fill="white"/>
<circle cx="133.296" cy="51.4465" r="2.33848" fill="white"/>
<circle cx="149.663" cy="51.4465" r="2.33848" fill="white"/>
<circle cx="2.33848" cy="35.0772" r="2.33848" fill="white"/>
<circle cx="18.7096" cy="35.0772" r="2.33848" fill="white"/>
<circle cx="35.0768" cy="35.0772" r="2.33848" fill="white"/>
<circle cx="51.4479" cy="35.0772" r="2.33848" fill="white"/>
<circle cx="67.815" cy="35.0772" r="2.33848" fill="white"/>
<circle cx="84.1861" cy="35.0772" r="2.33848" fill="white"/>
<circle cx="100.553" cy="35.0772" r="2.33848" fill="white"/>
<circle cx="116.924" cy="35.0773" r="2.33848" fill="white"/>
<circle cx="133.296" cy="35.0772" r="2.33848" fill="white"/>
<circle cx="149.663" cy="35.0772" r="2.33848" fill="white"/>
<circle cx="2.33848" cy="18.7078" r="2.33848" fill="white"/>
<circle cx="18.7096" cy="18.7078" r="2.33848" fill="white"/>
<circle cx="35.0768" cy="18.7078" r="2.33848" fill="white"/>
<circle cx="51.4479" cy="18.7078" r="2.33848" fill="white"/>
<circle cx="67.815" cy="18.7078" r="2.33848" fill="white"/>
<circle cx="84.1861" cy="18.7078" r="2.33848" fill="white"/>
<circle cx="100.553" cy="18.7078" r="2.33848" fill="white"/>
<circle cx="116.924" cy="18.7077" r="2.33848" fill="white"/>
<circle cx="133.296" cy="18.7078" r="2.33848" fill="white"/>
<circle cx="149.663" cy="18.7078" r="2.33848" fill="white"/>
<circle cx="2.33848" cy="2.33848" r="2.33848" fill="white"/>
<circle cx="18.7096" cy="2.33848" r="2.33848" fill="white"/>
<circle cx="35.0768" cy="2.33848" r="2.33848" fill="white"/>
<circle cx="51.4479" cy="2.33848" r="2.33848" fill="white"/>
<circle cx="67.815" cy="2.33848" r="2.33848" fill="white"/>
<circle cx="84.1861" cy="2.33848" r="2.33848" fill="white"/>
<circle cx="100.553" cy="2.33848" r="2.33848" fill="white"/>
<circle cx="116.924" cy="2.33848" r="2.33848" fill="white"/>
<circle cx="133.296" cy="2.33848" r="2.33848" fill="white"/>
<circle cx="149.663" cy="2.33848" r="2.33848" fill="white"/>
</svg>
