<svg width="239" height="253" viewBox="0 0 239 253" fill="none" xmlns="http://www.w3.org/2000/svg">
<path d="M-5.10515e-06 136.208C0.688424 167.418 13.5809 197.117 35.9165 218.947C58.2521 240.776 88.255 253 119.5 253C150.745 253 180.748 240.776 203.083 218.947C225.419 197.117 238.312 167.418 239 136.208L239 -2.53482e-05L6.97331e-06 -1.49012e-05L-5.10515e-06 136.208ZM195.606 136.208C195.611 134.443 196.315 132.753 197.564 131.505C198.812 130.257 200.505 129.554 202.271 129.549C204.025 129.556 205.705 130.251 206.951 131.485C207.576 132.103 208.074 132.838 208.414 133.649C208.755 134.459 208.932 135.329 208.936 136.208C208.915 159.901 199.486 182.617 182.718 199.37C165.95 216.123 143.214 225.544 119.5 225.565C117.734 225.56 116.042 224.856 114.793 223.609C113.544 222.361 112.84 220.67 112.835 218.906C112.84 217.141 113.544 215.45 114.793 214.203C116.042 212.955 117.734 212.252 119.5 212.246C139.671 212.201 159.002 204.175 173.265 189.925C187.528 175.675 195.56 156.361 195.606 136.208Z" fill="white" fill-opacity="0.05"/>
</svg>
